# xmcd CD database file
#
# Track frame offsets:
#	187
#	21430
#	38750
#	59652
#	78965
#	99365
#	123187
#	144745
#	163722
#	186297
#
# Disc length: 2790 seconds
#
# Revision: 0
# Processed by: cddbd v1.5.1PL2 Copyright (c) Steve Scherf et al.
# Submitted via: freeDB plugin v1.0
#
DISCID=840ae40a
DTITLE=障子久美 - 障子久美／リズム・オブ・サイレンス
DYEAR=1900
DGENRE=Jazz
TTITLE0=プライヴェート・パーティ
TTITLE1=ミス・ユー
TTITLE2=ヘヴン
TTITLE3=うすべにの嵐
TTITLE4=ワンダー
TTITLE5=ワン・バイ・ワン
TTITLE6=ギヴ・ミー・ユア・ラヴ
TTITLE7=パラダイス
TTITLE8=三度目の木枯し
TTITLE9=戻らないとき
EXTD=
EXTT0=
EXTT1=
EXTT2=
EXTT3=
EXTT4=
EXTT5=
EXTT6=
EXTT7=
EXTT8=
EXTT9=
PLAYORDER=
